<?xml version="1.0" encoding="UTF-8" standalone="no"?>

<svg
   width="61.22578mm"
   height="61.225288mm"
   viewBox="0 0 61.22578 61.225288"
   version="1.1"
   id="svg5"
   xml:space="preserve"
   xmlns:xlink="http://www.w3.org/1999/xlink"
   xmlns="http://www.w3.org/2000/svg"
   xmlns:svg="http://www.w3.org/2000/svg"><defs
     id="defs2"><linearGradient
       id="linearGradient17738"><stop
         style="stop-color:#57719e;stop-opacity:1;"
         offset="0"
         id="stop17734" /><stop
         style="stop-color:#57719e;stop-opacity:1;"
         offset="1"
         id="stop17736" /></linearGradient><radialGradient
       xlink:href="#linearGradient17738"
       id="radialGradient17744"
       cx="30.899994"
       cy="74.38253"
       fx="30.899994"
       fy="74.38253"
       r="25.494308"
       gradientTransform="matrix(1,0,0,0.94813641,0,-9.4282246)"
       gradientUnits="userSpaceOnUse" /></defs><g
     id="layer1"><circle
       style="fill:#7e9ac1;fill-opacity:1;fill-rule:evenodd;stroke-width:7.009;stroke-linecap:round;stroke-linejoin:round"
       id="path233"
       cx="30.612646"
       cy="30.612644"
       r="30.612644" /><path
       id="path233-9"
       style="fill:#57719e;fill-opacity:1;fill-rule:evenodd;stroke-width:7.009;stroke-linecap:round;stroke-linejoin:round"
       d="M 30.64884,5.079028 A 43.171822,43.171822 0 0 0 5.38733,13.275944 30.612644,30.612644 0 0 0 5.8e-4,30.612353 30.612644,30.612644 0 0 0 30.61318,61.224955 30.612644,30.612644 0 0 0 61.22578,30.612353 30.612644,30.612644 0 0 0 55.72586,13.110579 43.171822,43.171822 0 0 0 30.64884,5.079028 Z" /><path
       id="path233-1"
       style="fill:#6883ad;fill-opacity:1;fill-rule:evenodd;stroke-width:7.009;stroke-linecap:round;stroke-linejoin:round"
       d="M 31.810461,10.533207 A 44.240688,44.240688 0 0 0 0.95239665,23.110217 30.612644,30.612644 0 0 0 0,30.612602 30.612644,30.612644 0 0 0 30.612602,61.225203 30.612644,30.612644 0 0 0 61.225203,30.612602 30.612644,30.612644 0 0 0 59.39224,20.185848 44.240688,44.240688 0 0 0 31.810461,10.533207 Z" /><path
       id="path233-2"
       style="fill:#5e78a9;fill-opacity:1;fill-rule:evenodd;stroke-width:7.009;stroke-linecap:round;stroke-linejoin:round"
       d="M 32.752006,15.741675 A 43.606457,43.606457 0 0 0 5.1676432e-4,30.60175 30.612644,30.612644 0 0 0 0,30.612602 30.612644,30.612644 0 0 0 30.612602,61.225203 30.612644,30.612644 0 0 0 61.225203,30.612602 30.612644,30.612644 0 0 0 60.878971,26.028385 43.606457,43.606457 0 0 0 32.752006,15.741675 Z" /><path
       id="path233-79"
       style="fill:#7e9ac1;fill-opacity:0.424983;fill-rule:evenodd;stroke-width:7.009;stroke-linecap:round;stroke-linejoin:round"
       d="M 31.99443,30.672546 A 44.240688,44.240688 0 0 0 2.2753133,42.161768 30.612644,30.612644 0 0 0 30.612602,61.225203 30.612644,30.612644 0 0 0 59.613416,40.355676 44.240688,44.240688 0 0 0 31.99443,30.672546 Z" /><ellipse
       style="fill:#375295;fill-opacity:1;fill-rule:evenodd;stroke-width:7.009;stroke-linecap:round;stroke-linejoin:round"
       id="path9576"
       cx="42.632504"
       cy="21.414757"
       rx="12.478169"
       ry="5.7129116"
       transform="rotate(9.1945901)" /><ellipse
       style="fill:#2a4074;fill-opacity:1;fill-rule:evenodd;stroke-width:4.45326;stroke-linecap:round;stroke-linejoin:round"
       id="path9576-6"
       cx="42.787449"
       cy="21.395584"
       rx="7.9281621"
       ry="3.6297703"
       transform="rotate(9.1945901)" /><path
       id="path233-0"
       style="opacity:1;fill:url(#radialGradient17744);fill-opacity:1;fill-rule:evenodd;stroke-width:7.009;stroke-linecap:round;stroke-linejoin:round"
       d="M 31.211015,37.094893 A 36.411507,36.411507 0 0 0 5.3541951,47.905603 30.612644,30.612644 0 0 0 30.612602,61.225203 30.612644,30.612644 0 0 0 56.342814,47.162496 36.411507,36.411507 0 0 0 31.211015,37.094893 Z" /><path
       id="path233-3"
       style="fill:#5e78a9;fill-opacity:1;fill-rule:evenodd;stroke-width:7.009;stroke-linecap:round;stroke-linejoin:round"
       d="M 30.71182,42.839246 A 29.807938,29.807938 0 0 0 8.985498,52.247974 30.612644,30.612644 0 0 0 30.612602,61.225203 30.612644,30.612644 0 0 0 52.344092,52.143587 29.807938,29.807938 0 0 0 30.71182,42.839246 Z" /><path
       id="path233-7"
       style="fill:#7e9ac1;fill-opacity:1;fill-rule:evenodd;stroke-width:7.009;stroke-linecap:round;stroke-linejoin:round"
       d="M 30.78785,49.84012 A 21.852608,21.852608 0 0 0 14.79554,56.802486 30.612644,30.612644 0 0 0 30.61318,61.224955 30.612644,30.612644 0 0 0 46.65044,56.66451 21.852608,21.852608 0 0 0 30.78785,49.84012 Z" /><path
       id="path16101"
       style="opacity:0.639696;fill:#ffffff;fill-rule:evenodd;stroke-width:7.009;stroke-linecap:round;stroke-linejoin:round"
       d="m 39.10072,33.1433 c -0.5815,0.763798 -0.55093,1.245829 -3.37272,1.245829 -2.82179,0 -2.91125,-1.341661 -3.6431,-1.225148 -0.45221,0.07199 -6.89354,0.748881 -5.26887,-0.69779 0.1838,-0.163665 1.26689,-1.090909 2.52851,-1.453771 1.35528,-0.389799 2.89468,-0.212837 3.08716,-0.281759 0.4904,-0.175599 1.51536,0.767463 2.34262,0.221536 0.77747,-0.513068 -3.29203,-3.308409 -1.64964,-3.329356 1.14768,-0.01464 2.98768,2.076487 2.83611,2.57556 -0.17062,0.561752 -0.0526,1.116798 0.0919,1.320116 0.20932,0.294593 0.69292,0.132666 1.0045,0.132666 2.82179,0 2.49244,0.902488 2.04354,1.492117 z" /><ellipse
       style="opacity:0.681906;fill:#ffffff;fill-opacity:1;fill-rule:evenodd;stroke-width:7.009;stroke-linecap:round;stroke-linejoin:round"
       id="path17240"
       cx="39.942707"
       cy="22.254837"
       rx="2.1140461"
       ry="0.76307541" /><path
       id="path17543"
       style="opacity:0.58307;fill:#ffffff;fill-rule:evenodd;stroke-width:2.39469;stroke-linecap:round;stroke-linejoin:round"
       d="m 55.444553,28.068754 c -1.262105,-0.490326 -3.228979,-1.509493 -4.218702,-1.551443 -3.295196,-0.139668 -3.882124,-1.118413 -2.798203,-1.531955 0.399424,-0.152391 1.626818,0.316264 2.169614,0.153589 0.837821,-0.251138 2.106768,0.288024 2.68277,0.767269 1.459868,1.214642 2.581153,0.825961 3.226305,1.309348 0.571241,0.428009 1.3969,0.518226 1.524745,1.041416 0.127845,0.52319 -0.347527,0.90519 -1.061777,0.853222 -0.714247,-0.05199 -1.018963,-0.844922 -1.524744,-1.041418 z" /><path
       id="path17543-0"
       style="opacity:0.58307;fill:#ffffff;fill-rule:evenodd;stroke-width:2.39469;stroke-linecap:round;stroke-linejoin:round"
       d="m 27.502853,6.1664251 c -1.339205,0.1996448 -3.552634,0.2892606 -4.433042,0.7433441 -2.931244,1.5118315 -3.926095,0.9526375 -3.189618,0.056254 0.27139,-0.3303177 1.569707,-0.5315819 1.960525,-0.9418886 0.603218,-0.6333588 1.972569,-0.7939787 2.710372,-0.6632071 1.869951,0.3314413 2.651201,-0.5618678 3.451116,-0.4617703 0.708275,0.08863 1.470108,-0.2422188 1.840447,0.1488334 0.370338,0.3910519 0.146781,0.9584359 -0.499333,1.2672905 -0.646121,0.308834 -1.303767,-0.2288412 -1.840446,-0.1488353 z" /><path
       id="path17543-62"
       style="opacity:0.58307;fill:#ffffff;fill-rule:evenodd;stroke-width:1.61206;stroke-linecap:round;stroke-linejoin:round"
       d="m 13.173477,42.190859 c -0.811625,0.414826 -2.204662,0.947085 -2.668942,1.425778 -1.5457779,1.59377 -2.3005629,1.450508 -2.0230509,0.7205 0.102261,-0.269009 0.88745,-0.676089 1.048744,-1.021768 0.24894,-0.533586 1.0881759,-0.92998 1.5869979,-1.004899 1.264255,-0.189883 1.570994,-0.927542 2.102861,-1.035365 0.470939,-0.09546 0.88601,-0.470085 1.206238,-0.300063 0.320226,0.170022 0.299371,0.580021 -0.04659,0.915765 -0.345969,0.335732 -0.880983,0.133825 -1.206237,0.300063 z" /><path
       id="path17543-6"
       style="opacity:0.58307;fill:#ffffff;fill-rule:evenodd;stroke-width:4.16705;stroke-linecap:round;stroke-linejoin:round"
       d="M 19.654674,7.7325941 C 17.448066,8.5585668 13.71374,9.5146835 12.380299,10.607095 7.9407273,14.244181 6.0446477,13.653722 6.9725581,11.860849 7.3144924,11.200177 9.4509266,10.386294 9.9670646,9.5461344 10.763687,8.2492664 13.035764,7.4787632 14.338852,7.4334474 c 3.302658,-0.11485 4.307883,-1.9187447 5.705539,-2.0388133 1.237535,-0.1063128 2.413922,-0.9459512 3.186148,-0.4149047 0.772226,0.531046 0.597765,1.5777978 -0.389673,2.3379916 -0.98746,0.7601605 -2.301864,0.083898 -3.18615,0.4149001 z" /><path
       id="path17543-9"
       style="opacity:0.58307;fill:#ffffff;fill-rule:evenodd;stroke-width:1.75792;stroke-linecap:round;stroke-linejoin:round"
       d="m 58.420741,30.202817 c -0.852224,-0.504999 -2.150136,-1.477634 -2.859002,-1.624301 -2.360109,-0.488313 -2.667526,-1.269607 -1.836781,-1.443439 0.306129,-0.06406 1.135885,0.421094 1.546638,0.366374 0.634015,-0.0845 1.485391,0.456855 1.844079,0.873282 0.909087,1.05543 1.763837,0.904079 2.171908,1.331636 0.361321,0.378574 0.946141,0.541123 0.976393,0.936952 0.03025,0.395829 -0.357844,0.618107 -0.86684,0.496471 -0.508992,-0.12165 -0.634868,-0.734578 -0.976393,-0.936953 z" /></g></svg>
